<?xml version="1.0" encoding="UTF-8" standalone="no"?><!DOCTYPE svg PUBLIC "-//W3C//DTD SVG 1.1//EN" "http://www.w3.org/Graphics/SVG/1.1/DTD/svg11.dtd"><svg viewBox="0 0 1000 476" xmlns="http://www.w3.org/2000/svg" fill-rule="evenodd" clip-rule="evenodd" stroke-linejoin="round" stroke-miterlimit="2"><g transform="matrix(1.25 0 0 -1.25 983.896 -21.507)"><clipPath id="a"><path d="M400.647 813.534s-.002-21.491.012-23.184c-.029-14.966 16.37-24.815 18.737-25.286 2.361.493 18.732 10.33 18.721 25.186l-.005 23.293-37.465-.009z"/></clipPath></g><g transform="matrix(1.25 0 0 -1.25 983.896 -21.507)"><clipPath id="b"><path d="M418.801 807.961c-.503-.504-.441-1.066-.296-1.534.29-.934-.036-1.021-.253-2.16-.659.575-.829.671-1.646.962-.688.244-1.035.988-1.328 1.235-.598.502-1.223.647-1.805.465.787-.318.994-.709 1.176-1.209.229-.636.026-1.097.742-1.627.832-.616 1.181-1.113 1.346-1.384 0 0-1.671.19-2.73-.49-.396-.255-.984-.117-1.383.02-.239.081-.411.162-.438.162-.592-.017-.987-.386-1.335-.96.516.238 1.218.105 1.687-.369.455-.463.765-.716 1.469-.302 1.073.63 1.626.228 2.776.065-.681-.527-1.445-.764-1.551-1.438-.136-.862-.624-1.255-1.276-1.6-.63-.335-.86-1.003-.786-1.329.416.895 1.226 1 1.825.981.659-.021 1.155.71 1.61 1.25.654.777 1.614.723 1.614.723-.272-1.239.22-1.271.699-2.212.445-.869-.029-1.534-.05-1.818-.041-.591.196-.963.834-1.372-.219.523-.3 1.039.35 1.708.496.509.517.92.354 1.383-.381 1.084-.061 1.247.141 2.39.667-.566.845-.737 1.665-1.016.691-.235 1.126-1.091 1.422-1.333.604-.495 1.076-.55 1.656-.362-.638.271-.851.58-1.039 1.08-.239.632-.083 1.224-.763 1.653-.913.577-1.429 1.145-1.597 1.413 0 0 1.773-.274 2.766.233 1.039.529 1.765.076 2.11.029.504-.069.871.271 1.258.96-.286-.16-.958-.22-1.648.369-.541.462-1.013.443-1.47.264-1.116-.437-2.039-.377-3.114.096 1.174.648 1.761.74 1.908 1.45.175.855.609 1.226 1.256 1.58.626.343.691.78.613 1.104-.442-.706-1.327-.902-1.928-.89-.659.012-.962-.535-1.363-1.118-.566-.823-1.221-.627-1.669-.905 0 0-.104 1.579-.619 2.274-.583.784.089 1.61.113 1.893.048.591-.258.891-.776 1.234.212-.528.133-.89-.527-1.548"/></clipPath></g><path d="M142.705 440.068c-11.695 6.031-20.559 8.372-32.987 8.372-32.62 0-48.864-21.175-48.864-42.833 0-22.408 18.335-43.333 50.463-43.333 11.696 0 22.158 2.466 30.405 7.389v18.709c-9.23-5.173-18.592-8.621-28.93-8.621-17.843 0-30.397 10.587-30.397 25.481 0 15.019 12.429 25.731 29.905 25.731 10.954 0 18.343-3.456 30.405-9.237v18.342M183.812 400.064c-7.755 0-13.045 6.031-13.045 18.834 0 14.645 6.273 18.951 13.045 18.951 8.372 0 12.803-6.889 12.803-19.325 0-11.079-3.815-18.46-12.803-18.46m0 48.373c-18.584 0-32.128-11.695-32.128-29.539 0-19.325 15.385-29.421 32.128-29.421 13.911 0 31.88 7.755 31.88 29.538 0 22.533-19.326 29.422-31.88 29.422M263.937 439.204c-5.664 6.523-11.203 9.23-18.342 9.23-11.196 0-20.8-6.89-20.8-21.541v-36.31h17.85v35.077c0 8.005 4.307 10.837 8.98 10.837 5.415 0 10.346-4.19 12.187-9.721v-36.194h17.968v56.744h-17.843v-8.122M314.401 398.71c5.664-6.523 11.204-9.23 18.46-9.23 8.863 0 20.683 5.047 20.683 21.783v36.068h-17.851v-34.586c0-8.005-3.816-11.328-8.863-11.328-4.432 0-7.756 2.34-12.429 9.354v36.56H296.55v-56.744h17.851v8.122M409.053 402.773h-20.675v23.383c0 5.54 3.199 9.112 8.738 9.112 3.69 0 7.14-.866 11.938-3.323v12.92c-6.281 2.59-10.955 3.573-16.494 3.573-11.82 0-22.033-5.414-22.033-21.3v-24.365h-8.122v-3.448l23.757-26.59h2.216v17.851h20.676v12.187M440.241 474.532h-18.959l16.618-36.435-22.15-47.515h19.076l11.937 29.172 12.804-29.172h18.709l-38.035 83.95zM603.087 440.068c-11.695 6.031-20.558 8.372-32.987 8.372-32.62 0-48.864-21.175-48.864-42.833 0-22.408 18.343-43.333 50.464-43.333 11.695 0 22.157 2.466 30.404 7.389v18.709c-9.237-5.173-18.584-8.621-28.93-8.621-17.843 0-30.396 10.587-30.396 25.481 0 15.019 12.428 25.731 29.905 25.731 10.954 0 18.342-3.456 30.404-9.237v18.342M644.193 400.064c-7.755 0-13.044 6.031-13.044 18.834 0 14.645 6.272 18.951 13.044 18.951 8.372 0 12.804-6.889 12.804-19.325 0-11.079-3.816-18.46-12.803-18.46m0 48.373c-18.585 0-32.121-11.695-32.121-29.539 0-19.325 15.385-29.421 32.12-29.421 13.911 0 31.88 7.755 31.88 29.538 0 22.533-19.326 29.422-31.88 29.422M725.262 439.204c-5.664 6.523-11.203 9.23-18.342 9.23-11.196 0-20.8-6.89-20.8-21.541v-36.31h17.843v35.077c0 8.005 4.314 10.837 8.988 10.837 5.422 0 10.345-4.19 12.186-9.721v-36.194h17.976v56.744h-17.85v-8.122M775.725 398.71c5.664-6.523 11.203-9.23 18.467-9.23 8.863 0 20.675 5.047 20.675 21.783v36.068h-17.85v-34.586c0-8.005-3.816-11.328-8.856-11.328-4.431 0-7.755 2.34-12.436 9.354v36.56h-17.843v-56.744h17.843v8.122M875.462 444.62c-7.139 2.583-13.17 3.816-19.2 3.816-19.942 0-32.87-11.57-32.87-29.297 0-17.351 13.42-29.663 32.128-29.663 5.79 0 13.17 1.475 19.084 3.698v13.287c-4.681-2.458-10.096-3.815-14.527-3.815-10.712 0-17.602 6.397-17.602 16.368 0 10.096 6.765 16.744 16.985 16.744 4.307 0 8.122-.984 16.002-3.94v12.803M906.57 447.326h-17.851v-56.744h17.85v56.744zm.858-75.204c0 5.415-4.432 9.846-9.846 9.846-5.423 0-9.854-4.431-9.854-9.846 0-5.414 4.431-9.846 9.854-9.846 5.414 0 9.846 4.432 9.846 9.846M922.08 447.326h17.843v-83.942H922.08zM404.025 277.377h10.384c-3.51-2.302-6.99-5.134-10.376-8.614l-.008 8.614M351.48 277.375h24.11v-18.499h-24.11zM467.975 269.048c-1.405 3.23-3.027 5.992-4.877 8.333h12.32c-2.442-2.325-4.908-5.08-7.443-8.333M749.991 258.877l3.277 15.604c4.517.226 8.621.538 12.194.936v-16.54h-15.471M529.576 277.377h32.815v-18.499h-24.24c-1.288 7.381-4.276 13.646-8.575 18.499M189.776 305.81c15.924 0 30.381-5.742 44.62-14.449h-81.204c8.606 9.066 21.386 14.45 36.584 14.45M793.88 216.702v10.306h24.319c-2.302-2.933-3.862-6.288-4.713-10.306H793.88M793.88 208.897h18.826c0-.18-.008-.351-.008-.538 0-2.528.43-5.025 1.225-7.412H793.88v7.95M265.101 200.95h-27.697v7.95h24.818c.718-2.91 1.693-5.555 2.879-7.95M289.15 277.375h33.713v-18.499h-33.712zM709.68 248.59h55.776v-13.856H706.63c.492 4.978 1.46 9.706 3.05 13.857M260.731 227.01v-5.07c0-1.819.078-3.558.226-5.236h-23.554v10.307h23.328M793.88 248.59h67.292c-14.894-5.164-26.035-9.128-33.845-13.856H793.88v13.857M197.849 216.702h-15.995c-9.986 1.178-18.685 4.767-25.434 10.306h73.042c-11.742-5.882-20.862-9.198-31.613-10.306M351.489 194.486h24.108v-7.35h-24.108zM404.012 194.486h39.01v-7.35h-39.01zM658.21 234.737c.008.554.031 1.1.031 1.654 0 4.268-.359 8.332-1.014 12.202h20.613v-13.856h-19.63M471.444 194.486h39.003v-7.35h-39.003zM269.291 194.483a29.423 29.423 0 019.23-7.35h-66.622c5.946 1.725 11.836 4.143 18.109 7.35h39.283M846.3 227.01h20.082l.008-10.306h-24.584c.577 3.503 2.028 7.053 4.494 10.307M260.731 258.877H141.399c-.015.53-.039 1.06-.039 1.607 0 6.078 1.07 11.75 3.035 16.891h116.336v-18.498M538.87 194.486h23.522v-7.35H538.87zM323.047 194.483h.055l-.031-7.35h-9.55c3.44 1.639 6.624 3.995 9.526 7.35M817.2 194.483a25.788 25.788 0 017.919-7.35h-31.24v7.35h23.32M867.916 194.483c.827-3.16 2.076-5.594 3.893-7.35h-17.063c3.925 1.717 7.966 4.12 12.32 7.35h.85M600.483 187.137h-9.674v6.117c3.129-2.536 6.359-4.572 9.674-6.117M842.277 208.897h22.86c-4.44-4.073-9.589-6.445-14.418-6.445-3.784 0-7.022 2.653-8.442 6.445M677.841 194.483v-7.35h-45.517c3.901 1.81 7.451 4.292 10.595 7.35h34.922M706.261 194.486h59.202v-7.35H706.26zM149.178 234.737c-2.902 4.065-5.07 8.707-6.374 13.856h117.927v-13.856H149.18M425.772 267.27c5.462 0 11.087-2.302 14.372-8.396h-31.318c5.47 5.524 11.204 8.395 16.946 8.395M303.461 204.858c-3.612 0-7.084 1.194-9.706 4.042h20.45c-3.176-2.536-6.882-4.042-10.744-4.042M493.786 267.27c6.234 0 10.97-2.934 13.77-8.396h-29.92c4.97 5.516 10.416 8.395 16.15 8.395M590.811 260.263c6.663 5.259 10.977 7.006 16.47 7.006 6.343 0 12.28-2.621 16.415-8.395h-32.885v1.39M607.67 204.858c-3.956 0-7.623 1.272-11.532 4.042h23.438c-3.285-2.653-7.303-4.042-11.906-4.042M629.394 234.737h-38.581v13.856h37.348c.811-3.41 1.264-7.31 1.264-11.765 0-.71-.008-1.405-.031-2.091M404.012 227.005h39.01v-10.306h-39.01zM471.444 227.005h39.003v-10.306h-39.003zM730.767 264.098c3.355.024 9.628-1.482 14.255-5.22h-28.65c3.582 3.238 8.294 5.173 14.395 5.22M607.445 96.965c-5.493 0-9.815 1.568-16.486 6.28v41.99c6.086 5.298 11.188 7.655 16.876 7.655 13.35 0 21.783-10.4 21.783-28.65 0-19.231-10.4-27.275-22.173-27.275M841.938 145.434c0 5.298 4.12 9.612 9.222 9.612 5.298 0 10.993-2.55 15.698-6.865v-21.784c-16.876 6.086-24.92 10.01-24.92 19.037M321.507 333.046c15.909 5.984 45.049 9.924 111.678 8.036 66.63-1.896 75.937-7.373 82.241-11.08 1.779-1.045 2.84-2.23 3.425-3.432H314.119c-.07 3.776 7.388 6.476 7.388 6.476" fill="#fff" fill-rule="nonzero"/><path d="M794.26 170.16h-28.454V79.695h28.454v90.465zm-47.49-58.874c-7.46-4.705-12.367-6.67-16.877-6.67-10.4 0-17.078 9.814-23.35 26.495v39.049h-28.455V79.695h28.454v25.903h.39c8.442-18.842 17.859-27.674 28.844-27.674 5.696 0 10.595 2.162 18.842 8.247l-7.849 25.115zm-130.497 60.637c-9.027 0-17.46-2.941-25.318-8.63v6.867H562.51V36.324h28.446v48.474c9.035-5.298 14.528-6.874 23.36-6.874 26.097 0 44.151 19.037 44.151 46.703 0 27.869-17.468 47.296-42.193 47.296m-77.31-1.763h-28.454v-52.984c0-12.951-6.28-20.215-16.68-20.215-8.24 0-15.893 5.298-22.369 15.308v57.89h-28.454v-53.576c0-14.714-8.832-19.622-17.273-19.622-7.451 0-14.91 4.323-21.776 12.562v60.637h-28.454V79.695h28.454v11.579c4.9-4.518 10.002-7.85 15.105-10.205 5.297-2.162 10.595-3.145 16.29-3.145 15.698 0 26.293 6.281 32.574 19.232 11.773-13.536 22.173-19.232 35.71-19.232 20.612 0 35.327 13.545 35.327 34.15v58.086zm-187.6 0H322.91v-12.952c-9.027 10.4-17.859 14.715-29.242 14.715-17.85 0-33.158-10.985-33.158-34.344V79.695h28.453v55.925c0 12.756 6.866 17.266 14.325 17.266 8.637 0 16.486-6.67 19.427-15.503V79.695h28.649v90.465zM236.23 76.715c-15.362-8.793-30.272-14.285-46.758-14.285-28.454 0-48.466 16.875-48.466 40.617 0 23.936 19.817 41.015 47.678 41.015 17.469 0 29.242-5.5 47.32-14.364v29.235c-17.493 9.26-31.614 12.99-51.44 12.99-52 0-77.902-33.752-77.902-68.291 0-35.71 29.242-69.071 80.454-69.071 18.647 0 35.32 3.924 49.114 12.327v29.827zm751.254 84.792c-7.302-8.777-18.795-25.465-18.795-25.465s-5.687-12.609-19.903-12.609c-14.223 0-33.876-15.697-33.876-15.697s-9.222-5.844-21.206-12.312c1.054 2.91 1.607 6.226 1.607 9.971v41.218c0 4.51 1.772 6.273 4.713 6.273 1.966 0 4.12-.39 10.79-5.095v15.893c-7.849 4.712-19.029 8.239-26.683 8.239-9.417 0-13.934-2.941-15.892-10.205-10.993 7.459-20.02 10.205-29.827 10.205-14.528 0-25.318-10.79-25.318-22.173 0-21.588 15.893-25.903 53.764-37.676.593-8.442-3.332-15.113-15.698-15.113-11.383 0-24.334 5.89-33.361 15.113V88.917c10.501-6.475 22.103-10.134 34.648-10.852-11.625-3.082-18.927-2.746-30.108-2.473-15.206.374-35.1-7.295-49.316-11.368-14.215-4.08-22.993-.741-32.394 1.974-9.394 2.723-16.79 2.099-22.478-2.224-5.687-4.33-19.161-4.946-19.161-4.946-10.018.125-14.957-4.322-14.957-4.322-5.812-6.062-8.535-5.446-22.992-1.857-14.465 3.58-19.287-9.269-19.287-9.269-3.955-12.366-10.134-14.34-10.134-14.34l-16.073-7.911c-10.509-5.196-13.341-11.625-13.341-11.625-10.876-14.832-30.163-7.287-30.163-7.287s-18.295 10.134-32.51 10.376c-14.216.25-17.43 4.705-22.377 7.053-4.938 2.349-14.34 3.457-14.34 3.457-9.393 1.365-44.627 9.151-44.627 9.151-17.18 3.215-46.11 4.323-59.709 1.85-13.59-2.474-19.778 4.696-23.734 8.16-3.955 3.464-11.367 9.027-19.528 2.598-8.16-6.428-18.545-7.786-18.545-7.786s-15.331-1.857-25.216-10.143c-9.893-8.278-20.028-10.75-33.252-12.483-13.233-1.732-24.234-2.348-33.377 1.358-9.152 3.714-18.18 4.821-29.547 4.33-11.375-.492-32.885-3.464-50.073.741-17.18 4.205-45.86 18.046-58.835 32.02C93.391 67.063 82.39 83.627 72.996 96.235c-9.393 12.608-26.082 27.939-33.377 33.993-7.295 6.062-15.947 15.58-15.947 15.58-10.985 12.944-17.859 25.794-21.37 36.78h996.862c-1.514-9.894-7.67-16.245-11.68-21.082M866.366 238.84l.008-4.111h-10.985c3.09 1.716 6.725 3.136 10.977 4.112M850.723 267.271c8.278 0 12.756-3.355 14.637-8.395h-38.527c7.514 5.29 16.072 8.395 23.89 8.395M706.199 266.678l.031 8.738c1.92-.156 3.83-.296 5.734-.429-1.529-1.974-3.081-4.228-4.673-6.819l-1.092-1.49M351.489 227.005h24.108v-10.306h-24.108zM471.444 208.897h39.003v-7.95h-39.003zM404.012 208.897h39.01v-7.95h-39.01zM677.839 208.897v-7.95h-29.492c1.677 2.434 3.16 5.094 4.44 7.95h25.052M351.489 208.897h24.108v-7.95h-24.108zM538.87 248.593h23.522v-13.856H538.87zM289.15 248.593h33.713v-13.856h-33.712zM706.261 208.897h59.202v-7.95H706.26zM443.022 234.737h-39.01v13.856h38.885a42.48 42.48 0 00.125-3.222v-10.634M706.261 227.005h59.202v-10.306H706.26zM320.608 216.699h-30.685c-.491 2.137-.772 4.595-.772 7.427v2.879h33.72v-4.853a29.066 29.066 0 00-2.263-5.453M590.815 216.699v10.306h37.863c-.647-3.924-1.693-7.373-3.105-10.306h-34.758M657.678 227.013h20.168v-10.307h-22.22a67.686 67.686 0 012.052 10.307M351.48 248.593h24.11v-13.856h-24.11zM471.444 248.585h38.823c.11-1.24.18-2.52.18-3.877v-9.979h-39.003v13.856M538.87 227.005h23.522v-10.306H538.87zM538.87 208.897h23.522v-7.95H538.87z" fill="#fff" fill-rule="nonzero"/><g><path d="M910.307 208.748c-5.937-4.681-9.199-4.502-11.157-4.502-2.294 0-3.636 1.576-4.12 4.65h98.337c1.459-2.8 2.614-5.445 3.51-7.95h-86.57v7.802" fill="#fff" fill-rule="nonzero"/></g><g><path d="M910.307 193.99v.492h88.42c.538-2.63.788-5.071.772-7.35H899.033c3.987 1.88 7.482 4.315 11.274 6.859" fill="#fff" fill-rule="nonzero"/></g><g><path d="M159.135 187.137H1.012a19.924 19.924 0 00-.398 7.35h141.544c5.102-3.043 10.759-5.524 16.977-7.35" fill="#fff" fill-rule="nonzero"/></g><g><path d="M894.167 265.206a170.662 170.662 0 0018.1-6.328H894.8c-.047 2.255-.258 4.361-.632 6.328" fill="#fff" fill-rule="nonzero"/></g><g><path d="M894.824 248.59h38.136c1.21-.71 2.403-1.42 3.581-2.153 10.619-6.585 16.665-9.323 23.274-11.703h-64.991v13.857" fill="#fff" fill-rule="nonzero"/></g><g><path d="M654.546 258.877c-2.653 7.388-6.647 13.661-11.742 18.498h35.039v-18.498h-23.297" fill="#fff" fill-rule="nonzero"/></g><g><path d="M235.837 309.236h64.788c2.224-.016 5.47 0 8.7 0H562.39v-17.867H235.837v17.867" fill="#fff" fill-rule="nonzero"/></g><g><path d="M107.068 258.877H85.301a776.77 776.77 0 0022.314 10.392 80.929 80.929 0 01-.554-9.448c0-.312.007-.632.007-.944" fill="#fff" fill-rule="nonzero"/></g><g><path d="M133.06 200.95H2.603c1.864 3.822 4.26 6.054 4.26 6.054a54.024 54.024 0 001.81 1.896h116.382a68.806 68.806 0 018.005-7.95" fill="#fff" fill-rule="nonzero"/></g><g><path d="M110.873 234.737H42.232a568.97 568.97 0 007.24 4.743c4.595 2.957 9.994 6.055 15.65 9.113H107.8a82.552 82.552 0 013.073-13.856" fill="#fff" fill-rule="nonzero"/></g><g><path d="M119.27 216.702H17.454c3.776 3.082 8.309 6.538 13.575 10.306h82.74a73.76 73.76 0 015.5-10.306" fill="#fff" fill-rule="nonzero"/></g><g><path d="M590.811 307.428c21.206-3.324 44.979-11.992 54.403-15.994.055-.023.11-.047.156-.07h-54.559v16.064" fill="#fff" fill-rule="nonzero"/></g><g><path d="M793.88 277.198c2.27.031 3.604.024 3.604.024a410.332 410.332 0 0020.246-.757c-.109-.07-.218-.14-.327-.219V258.88H793.88v18.32" fill="#fff" fill-rule="nonzero"/></g><g><path d="M988.595 216.702h-93.772v10.306h83.068c4.97-3.557 8.785-7.91 10.704-10.306" fill="#fff" fill-rule="nonzero"/></g><g><path d="M323.1 194.483h-.055c.016.024.04.04.055.063v-.063" fill="#fff" fill-rule="nonzero"/></g><g><path d="M867.916 194.483h-.85c.234.18.468.343.71.523.039-.18.093-.343.14-.523" fill="#fff" fill-rule="nonzero"/></g><g><path d="M234.395 291.364h1.443v-.881" fill="#fff" fill-rule="nonzero"/></g></svg>