<?xml version="1.0" standalone="no"?>
<!DOCTYPE svg PUBLIC "-//W3C//DTD SVG 20010904//EN"
 "http://www.w3.org/TR/2001/REC-SVG-20010904/DTD/svg10.dtd">
<svg version="1.0" xmlns="http://www.w3.org/2000/svg"
 width="700.000000pt" height="700.000000pt" viewBox="0 0 700.000000 700.000000"
 preserveAspectRatio="xMidYMid meet">
<metadata>
Created by potrace 1.11, written by Peter Selinger 2001-2013
</metadata>
<g transform="translate(0.000000,700.000000) scale(0.100000,-0.100000)"
fill="#000000" stroke="none">
<path d="M1529 6996 c-2 -2 -33 -7 -68 -10 -36 -4 -85 -11 -110 -17 -25 -6
-53 -12 -61 -14 -251 -53 -525 -196 -729 -380 -117 -105 -230 -239 -309 -366
-85 -135 -172 -343 -205 -494 -9 -38 -22 -92 -29 -120 -9 -39 -13 -498 -14
-2065 -3 -1915 -2 -2020 16 -2116 56 -310 165 -557 347 -784 276 -344 687
-572 1113 -618 36 -4 954 -7 2040 -7 2115 0 2031 -2 2228 50 315 81 616 267
837 517 61 68 72 84 137 182 139 211 223 432 262 686 12 81 15 395 14 2060 0
2113 2 2038 -53 2250 -146 573 -623 1050 -1193 1195 -100 25 -112 27 -232 44
-61 9 -3982 15 -3991 7z m2386 -1079 c17 -3 64 -10 105 -16 389 -57 746 -221
1004 -461 154 -143 255 -279 351 -470 63 -125 165 -393 165 -432 0 -3 -26 -11
-57 -18 -32 -8 -62 -15 -68 -16 -5 -1 -98 -23 -205 -49 -107 -25 -249 -59
-315 -75 -242 -58 -293 -70 -298 -70 -4 0 -16 33 -28 73 -45 155 -129 303
-234 415 -196 211 -458 313 -782 306 -120 -2 -132 -4 -252 -29 -241 -51 -478
-208 -632 -420 -64 -88 -145 -257 -175 -365 -71 -258 -98 -472 -98 -790 0
-160 10 -394 19 -435 3 -11 7 -45 11 -75 3 -30 7 -64 9 -75 59 -348 163 -584
336 -766 130 -135 314 -244 484 -288 102 -26 149 -32 285 -36 143 -4 233 9
358 51 317 106 540 361 671 766 23 70 41 135 41 145 1 47 10 47 196 -12 98
-31 221 -70 272 -86 165 -52 276 -87 357 -113 44 -14 86 -26 93 -26 7 0 15 -6
18 -14 13 -34 -101 -346 -189 -521 -48 -94 -151 -263 -193 -315 -113 -140
-210 -237 -314 -314 -30 -22 -57 -43 -60 -47 -9 -9 -156 -99 -164 -99 -4 0
-18 -8 -32 -17 -42 -27 -172 -81 -284 -117 -88 -29 -145 -43 -280 -71 -8 -1
-37 -6 -65 -9 -27 -4 -67 -9 -87 -12 -59 -8 -182 -14 -308 -14 -193 -1 -331
14 -521 55 -510 112 -969 432 -1261 880 -119 182 -254 497 -293 681 -2 11 -10
48 -19 84 -8 36 -17 81 -20 100 -3 19 -8 46 -10 59 -3 12 -8 44 -11 70 -4 25
-8 57 -10 71 -19 124 -26 532 -12 725 7 110 33 317 47 380 5 22 12 56 15 75
15 84 83 322 114 395 5 11 19 45 31 75 171 424 506 800 912 1023 226 124 533
215 838 246 83 8 485 7 545 -2z"/>
</g>
</svg>
