<?xml version="1.0" encoding="UTF-8" standalone="no"?><!DOCTYPE svg PUBLIC "-//W3C//DTD SVG 1.1//EN" "http://www.w3.org/Graphics/SVG/1.1/DTD/svg11.dtd"><svg viewBox="0 0 473 473" xmlns="http://www.w3.org/2000/svg" fill-rule="evenodd" clip-rule="evenodd" stroke-linejoin="round" stroke-miterlimit="2"><circle cx="500.988" cy="452.183" r="213.087" fill="#cd486b" transform="translate(-319.156 -265.053) scale(1.10856)"/><path d="M236.246 176.449c-33.085 0-59.772 26.687-59.772 59.772 0 33.085 26.687 59.772 59.772 59.772 33.086 0 59.773-26.687 59.773-59.772 0-33.085-26.687-59.772-59.773-59.772zm0 98.632c-21.38 0-38.86-17.427-38.86-38.86s17.428-38.86 38.86-38.86c21.433 0 38.86 17.427 38.86 38.86s-17.479 38.86-38.86 38.86zm76.16-101.077a13.91 13.91 0 01-13.942 13.941 13.91 13.91 0 01-13.942-13.941c0-7.7 6.242-13.942 13.942-13.942 7.699 0 13.941 6.243 13.941 13.942zm39.587 14.15c-.884-18.676-5.15-35.219-18.831-48.848-13.63-13.63-30.173-17.896-48.848-18.832-19.248-1.092-76.94-1.092-96.187 0-18.624.884-35.166 5.15-48.848 18.78-13.682 13.63-17.895 30.172-18.832 48.847-1.092 19.248-1.092 76.94 0 96.187.885 18.676 5.15 35.219 18.832 48.848 13.682 13.63 30.172 17.896 48.848 18.832 19.248 1.092 76.939 1.092 96.187 0 18.675-.884 35.218-5.15 48.848-18.832 13.63-13.63 17.895-30.172 18.831-48.848 1.093-19.247 1.093-76.887 0-96.135zM327.127 304.94c-4.057 10.196-11.913 18.051-22.16 22.16-15.347 6.087-51.762 4.683-68.72 4.683-16.96 0-53.426 1.352-68.72-4.682-10.197-4.058-18.052-11.913-22.162-22.161-6.086-15.346-4.681-51.761-4.681-68.72 0-16.959-1.353-53.426 4.681-68.72 4.058-10.196 11.913-18.051 22.161-22.16 15.347-6.087 51.761-4.683 68.72-4.683 16.96 0 53.426-1.352 68.72 4.682 10.196 4.058 18.051 11.913 22.161 22.161 6.087 15.346 4.682 51.761 4.682 68.72 0 16.959 1.405 53.426-4.682 68.72z" fill="#fff" fill-rule="nonzero" stroke="#fff" stroke-width=".9988031999999999"/></svg>