<?xml version="1.0" encoding="UTF-8" standalone="no"?><!DOCTYPE svg PUBLIC "-//W3C//DTD SVG 1.1//EN" "http://www.w3.org/Graphics/SVG/1.1/DTD/svg11.dtd"><svg viewBox="0 0 473 473" xmlns="http://www.w3.org/2000/svg" fill-rule="evenodd" clip-rule="evenodd" stroke-linejoin="round" stroke-miterlimit="2"><circle cx="500.988" cy="452.183" r="213.087" fill="#0e76a8" transform="translate(-319.156 -265.053) scale(1.10856)"/><path d="M169.611 337.616h-50.005V176.584h50.005v161.032zm-25.03-182.998c-15.99 0-28.959-13.244-28.959-29.234 0-15.887 13.073-28.96 28.96-28.96s28.96 13.073 28.96 28.96c0 15.99-12.975 29.234-28.96 29.234zM356.82 337.616h-49.951v-78.39c0-18.682-.377-42.64-25.999-42.64-25.999 0-29.983 20.297-29.983 41.295v79.735h-49.951V176.584h47.96v21.966h.7c6.675-12.652 22.983-26.004 47.313-26.004 50.608 0 59.911 33.326 59.911 76.613v88.457z" fill="#fff" fill-rule="nonzero" stroke="#fff" stroke-width="1.0014054000000001"/></svg>