<?xml version="1.0" encoding="UTF-8" standalone="no"?><!DOCTYPE svg PUBLIC "-//W3C//DTD SVG 1.1//EN" "http://www.w3.org/Graphics/SVG/1.1/DTD/svg11.dtd"><svg viewBox="0 0 473 473" xmlns="http://www.w3.org/2000/svg" fill-rule="evenodd" clip-rule="evenodd" stroke-linejoin="round" stroke-miterlimit="2"><circle cx="500.988" cy="452.183" r="213.087" fill="#1da1f2" transform="translate(-319.156 -265.053) scale(1.10856)"/><path d="M347.873 178.967c.178 2.497.178 4.995.178 7.492 0 76.158-57.966 163.91-163.91 163.91-32.64 0-62.96-9.453-88.466-25.861 4.638.535 9.096.713 13.912.713 26.932 0 51.724-9.096 71.521-24.613-25.326-.535-46.551-17.123-53.864-39.953 3.568.535 7.135.892 10.88.892 5.173 0 10.345-.714 15.16-1.962-26.396-5.35-46.194-28.537-46.194-56.54v-.712a58.019 58.019 0 0026.04 7.312c-15.518-10.345-25.684-28.002-25.684-47.978 0-10.702 2.854-20.511 7.848-29.073 28.359 34.959 70.987 57.788 118.786 60.285-.892-4.28-1.427-8.739-1.427-13.198 0-31.748 25.684-57.61 57.61-57.61 16.587 0 31.569 6.957 42.092 18.193a113.422 113.422 0 0036.564-13.912c-4.282 13.377-13.378 24.614-25.327 31.748 11.593-1.248 22.83-4.46 33.174-8.918-7.846 11.415-17.657 21.58-28.893 29.785z" fill="#fff" fill-rule="nonzero" stroke="#fff" stroke-width=".9991982"/></svg>