<?xml version="1.0" encoding="UTF-8" standalone="no"?><!DOCTYPE svg PUBLIC "-//W3C//DTD SVG 1.1//EN" "http://www.w3.org/Graphics/SVG/1.1/DTD/svg11.dtd"><svg viewBox="0 0 473 473" xmlns="http://www.w3.org/2000/svg" fill-rule="evenodd" clip-rule="evenodd" stroke-linejoin="round" stroke-miterlimit="2"><circle cx="500.988" cy="452.183" r="213.087" fill="red" transform="translate(-319.156 -265.053) scale(1.10856)"/><path d="M367.767 169.9c-3.158-11.89-12.462-21.255-24.275-24.433-21.412-5.774-107.271-5.774-107.271-5.774s-85.86 0-107.272 5.774c-11.813 3.179-21.117 12.542-24.275 24.432-5.737 21.552-5.737 66.517-5.737 66.517s0 44.964 5.737 66.516c3.158 11.89 12.462 20.864 24.275 24.042 21.412 5.774 107.272 5.774 107.272 5.774s85.859 0 107.271-5.774c11.813-3.178 21.117-12.152 24.275-24.042 5.737-21.552 5.737-66.516 5.737-66.516s0-44.965-5.737-66.517zM208.14 277.24v-81.65l71.761 40.827-71.761 40.823z" fill="#fff" fill-rule="nonzero" stroke="#fff" stroke-width="1.0004725"/></svg>